# xmcd
#
# Track frame offsets: 
#        150
#        18525
#        33992
#        53555
#        71785
#        95275
#        109767
#        127160
#        141720
#        166459
#        180937
#        195070
#        214377
#        236292
#        252297
#        267135
#        284242
#        299847
#        313917
#
# Disc length: 4368 seconds
#
# Revision: 5
# Processed by: cddbd v1.5.2PL0 Copyright (c) Steve Scherf et al.
# Submitted via: ExactAudioCopy v0.99pb5
#
DISCID=2a110e13,2c110e13
DTITLE=Various Artist - Die schönsten deutschen Schlager der 80er - CD 4
DYEAR=1998
DGENRE=Schlager
TTITLE0=Juliane Werding - Großstadtlichter
TTITLE1=Juliane Werding - Nacht voll Schatten
TTITLE2=Juliane Werding - Stimmen im Wind
TTITLE3=Juliane Werding - Drei Jahre lang
TTITLE4=Juliane Werding - Sehnsucht in unheilbar
TTITLE5=Juliane Werding - Geh nicht in die Stadt (heut Nacht)
TTITLE6=Juliane Werding - Sonne auf der Haut
TTITLE7=Juliane Werding - Das Würfelspiel
TTITLE8=Milva - Du gibst mir mehr
TTITLE9=Milva - Hurra, wir leben noch
TTITLE10=Milva - Du hast es gut
TTITLE11=Milva - Ich hab' keine Angst
TTITLE12=Milva - Wenn der Wind sich dreht
TTITLE13=Andy Borg - Adios Amor
TTITLE14=Andy Borg - Arrivederci Claire
TTITLE15=Andy Borg - Weil wir uns lieben
TTITLE16=Andy Borg - Barcarole vom Abschied
TTITLE17=Muck - Lady in weiß
TTITLE18=Muck - Leben im Wunderland
EXTD=
EXTT0=
EXTT1=
EXTT2=
EXTT3=
EXTT4=
EXTT5=
EXTT6=
EXTT7=
EXTT8=
EXTT9=
EXTT10=
EXTT11=
EXTT12=
EXTT13=
EXTT14=
EXTT15=
EXTT16=
EXTT17=
EXTT18=
PLAYORDER=
